solid OpenSCAD_Model
  facet normal 0.242536 -0.840168 0.485071
    outer loop
      vertex -3.77194e-017 -0.433013 -0.25
      vertex 1 -1.22461e-016 6.12303e-017
      vertex -3.06152e-017 3.74915e-033 0.5
    endloop
  endfacet
  facet normal 0.242536 -4.02811e-016 -0.970143
    outer loop
      vertex 6.83346e-017 0.433013 -0.25
      vertex 1 -1.22461e-016 6.12303e-017
      vertex -3.77194e-017 -0.433013 -0.25
    endloop
  endfacet
  facet normal 0.242536 0.840168 0.485071
    outer loop
      vertex -3.06152e-017 3.74915e-033 0.5
      vertex 1 -1.22461e-016 6.12303e-017
      vertex 6.83346e-017 0.433013 -0.25
    endloop
  endfacet
  facet normal -1 1.22461e-016 -6.12303e-017
    outer loop
      vertex 6.83346e-017 0.433013 -0.25
      vertex -3.77194e-017 -0.433013 -0.25
      vertex -3.06152e-017 3.74915e-033 0.5
    endloop
  endfacet
endsolid OpenSCAD_Model
